<svg xmlns="http://www.w3.org/2000/svg"
    xmlns:xlink="http://www.w3.org/1999/xlink" version="1.1" x="0px" y="0px" viewBox="0 0 80 80" style="enable-background:new 0 0 80 80;" xml:space="preserve">
    <path d="M64.5342,20.8403l-0.1846-1.084l-1.0625,0.2842c-0.0518,0.0134-5.0571,1.2932-12.3569-0.8713l2.7144-4.3435l-5.1104-3.1938  l-3.2949,5.2727c-1.1909-0.5891-2.3779-1.2324-3.5342-1.9553l-0.8486-0.5298l-5.9775,9.5669l0.8477,0.5303  c1.1582,0.7234,2.2559,1.5078,3.3071,2.3196L25.0625,49.1936l-0.8535-0.5334l-8.5381,13.6641  c-0.4248,0.6797-0.5596,1.4844-0.3799,2.2651c0.1807,0.7808,0.6543,1.4448,1.333,1.8691l1.7305,1.0811  c0.4932,0.3081,1.042,0.4551,1.585,0.4551c1.001,0,1.9805-0.5,2.5488-1.4097l8.5391-13.6641l-0.854-0.5337L43.564,30.9587  c5.146,5.6125,6.1885,10.671,6.1987,10.7219l0.2061,1.0859l1.0596-0.3135c4.376-1.2935,8.1865-4.2485,10.7305-8.3208  C64.3037,30.0601,65.29,25.3394,64.5342,20.8403z M49.1709,14.3877l1.7178,1.0737l-1.9092,3.0541  c-0.1846-0.0674-0.3701-0.1354-0.5513-0.2047c-0.3354-0.1282-0.6685-0.2583-0.9941-0.3942  c-0.124-0.0519-0.2451-0.1078-0.3682-0.1608L49.1709,14.3877z M20.793,65.5249c-0.292,0.4673-0.9102,0.6123-1.3779,0.3184  l-1.7314-1.0811c-0.2256-0.1416-0.3838-0.3623-0.4434-0.6226c-0.0605-0.2603-0.0156-0.5283,0.126-0.7554l7.4795-11.968  l3.4258,2.1411L20.793,65.5249z M26.7588,50.2537l13.8403-22.1494c0.1001,0.0859,0.2017,0.1691,0.3013,0.2566  c0.2661,0.2341,0.5308,0.478,0.7949,0.7246c0.1421,0.1331,0.2842,0.2699,0.4263,0.407L28.4771,51.3271L26.7588,50.2537z   M44.1104,28.6265c-1.0273-1.0332-2.0479-1.9536-3.1162-2.812c0-0.0002-0.0005-0.0002-0.0005-0.0005  c-0.001-0.0006-0.0015-0.0013-0.0024-0.002l-0.877-0.7051l-0.0132,0.0212c-0.7969-0.6091-1.6157-1.2051-2.4722-1.7683l3.8701-6.1943  c0.8809,0.5229,1.7759,0.9977,2.6729,1.447l-0.0127,0.0208l1.0186,0.48c1.2432,0.5854,2.5176,1.0991,3.8975,1.5703  c0.0049,0.0017,0.0093,0.0029,0.0142,0.0045l0.7349,0.2509l0.0083-0.0134c2.958,0.9297,5.5791,1.3369,7.7261,1.4669  c-0.2773,2.5985-1.1714,5.1652-2.6172,7.4796c-1.4458,2.3132-3.3604,4.2417-5.5752,5.6309  c-1.0581-1.8723-2.5732-4.0496-4.7051-6.3003l0.0088-0.0137L44.1104,28.6265z M60.0635,33.0728  c-2.0928,3.3486-5.127,5.853-8.623,7.1382c-0.2158-0.7028-0.5811-1.714-1.1548-2.9297c2.5308-1.5559,4.7158-3.7312,6.3511-6.3496  c1.6372-2.6196,2.6343-5.5374,2.9233-8.4923c1.3442-0.0172,2.4126-0.1327,3.1392-0.2465  C63.0762,25.8979,62.1563,29.7236,60.0635,33.0728z" fill="white"/>
    <!-- <text x="0" y="95" fill="#000000" font-size="5px" font-weight="bold" font-family="'Helvetica Neue', Helvetica, Arial-Unicode, Arial, Sans-serif">Created by Icon Lauk</text> -->
    <!-- <text x="0" y="100" fill="#000000" font-size="5px" font-weight="bold" font-family="'Helvetica Neue', Helvetica, Arial-Unicode, Arial, Sans-serif">from the Noun Project</text> -->
</svg>